<svg width="129" height="38" viewBox="0 0 129 38" fill="none" xmlns="http://www.w3.org/2000/svg">
<path d="M33.3906 17.3123C33.2827 16.2238 32.8194 15.3781 32.0007 14.7754C31.1821 14.1726 30.071 13.8713 28.6676 13.8713C27.714 13.8713 26.9089 14.0062 26.2521 14.2761C25.5954 14.537 25.0916 14.9013 24.7408 15.3691C24.3989 15.8369 24.228 16.3677 24.228 16.9615C24.21 17.4563 24.3134 17.8881 24.5384 18.2569C24.7723 18.6258 25.0916 18.9451 25.4964 19.215C25.9013 19.4759 26.3691 19.7053 26.8999 19.9032C27.4306 20.0922 27.9974 20.2541 28.6001 20.389L31.0831 20.9828C32.2886 21.2527 33.3951 21.6125 34.4027 22.0623C35.4103 22.5121 36.2829 23.0654 37.0206 23.7221C37.7583 24.3788 38.3295 25.1525 38.7344 26.0431C39.1482 26.9338 39.3596 27.9548 39.3686 29.1064C39.3596 30.7976 38.9278 32.264 38.0732 33.5055C37.2275 34.738 36.004 35.6961 34.4027 36.3798C32.8104 37.0545 30.8897 37.3919 28.6406 37.3919C26.4096 37.3919 24.4664 37.05 22.8111 36.3663C21.1648 35.6826 19.8783 34.6705 18.9517 33.3301C18.0341 31.9806 17.5528 30.3118 17.5078 28.3237H23.1619C23.2249 29.2503 23.4903 30.024 23.9581 30.6447C24.4349 31.2565 25.0691 31.7198 25.8608 32.0346C26.6615 32.3405 27.5656 32.4934 28.5732 32.4934C29.5627 32.4934 30.4219 32.3495 31.1506 32.0616C31.8883 31.7737 32.4595 31.3734 32.8643 30.8606C33.2692 30.3478 33.4716 29.7586 33.4716 29.0929C33.4716 28.4721 33.2872 27.9503 32.9183 27.5275C32.5585 27.1047 32.0277 26.7449 31.326 26.448C30.6333 26.1511 29.7831 25.8812 28.7756 25.6383L25.7663 24.8826C23.4363 24.3159 21.5966 23.4297 20.2472 22.2243C18.8977 21.0188 18.2275 19.3949 18.2365 17.3528C18.2275 15.6795 18.6728 14.2176 19.5724 12.9672C20.4811 11.7167 21.727 10.7406 23.3104 10.0389C24.8937 9.33718 26.6929 8.98633 28.7081 8.98633C30.7592 8.98633 32.5495 9.33718 34.0788 10.0389C35.6172 10.7406 36.8137 11.7167 37.6683 12.9672C38.523 14.2176 38.9638 15.666 38.9908 17.3123H33.3906Z" fill="#D196FF"/>
<path d="M49.1419 9.36417V37.0005H43.2988V9.36417H49.1419Z" fill="#D196FF"/>
<path d="M77.065 9.36417V37.0005H72.0181L59.9947 19.6064H59.7923V37.0005H53.9492V9.36417H59.0771L71.006 26.7449H71.2489V9.36417H77.065Z" fill="#D196FF"/>
<path d="M92.9579 9.36417H98.7335V28.6341C98.7335 30.4153 98.3332 31.9627 97.5325 33.2761C96.7408 34.5896 95.6388 35.6016 94.2264 36.3123C92.814 37.023 91.1722 37.3784 89.301 37.3784C87.6367 37.3784 86.1253 37.086 84.7669 36.5012C83.4174 35.9075 82.3469 35.0079 81.5552 33.8024C80.7636 32.5879 80.3722 31.063 80.3812 29.2278H86.1973C86.2153 29.9565 86.3637 30.5817 86.6426 31.1035C86.9305 31.6163 87.3218 32.0121 87.8166 32.291C88.3204 32.5609 88.9141 32.6958 89.5978 32.6958C90.3175 32.6958 90.9248 32.5429 91.4196 32.237C91.9234 31.9222 92.3057 31.4634 92.5666 30.8606C92.8275 30.2579 92.9579 29.5157 92.9579 28.6341V9.36417Z" fill="#D196FF"/>
<path d="M108.328 37.0005H102.067L111.607 9.36417H119.137L128.664 37.0005H122.403L115.48 15.6795H115.264L108.328 37.0005ZM107.937 26.1376H122.726V30.6987H107.937V26.1376Z" fill="#D196FF"/>
<path d="M16 8C16 12.4183 12.4183 16 8 16C3.58172 16 0 12.4183 0 8C0 3.58172 3.58172 0 8 0C12.4183 0 16 3.58172 16 8Z" fill="#D196FF"/>
</svg>
